<svg xmlns="http://www.w3.org/2000/svg" xmlns:xlink="http://www.w3.org/1999/xlink" contentStyleType="text/css" data-diagram-type="CLASS" height="150px" preserveAspectRatio="none" style="width:174px;height:150px;background:#1B1B1B;" version="1.1" viewBox="0 0 174 150" width="174px" zoomAndPan="magnify"><defs/><g><rect fill="#1B1B1B" height="150" style="stroke:none;stroke-width:1;" width="174" x="0" y="0"/><!--class Task--><g class="entity" data-entity="Task" data-source-line="1" data-uid="ent0002" id="entity_Task"><rect fill="#313139" height="129.4844" rx="2.5" ry="2.5" style="stroke:#E7E7E7;stroke-width:0.5;" width="153.1963" x="7" y="7"/><ellipse cx="63.082" cy="23" fill="#2E5233" rx="11" ry="11" style="stroke:#E7E7E7;stroke-width:1;"/><path d="M66.0508,28.6406 Q65.4727,28.9375 64.832,29.0781 Q64.1914,29.2344 63.4883,29.2344 Q60.9883,29.2344 59.6602,27.5938 Q58.3477,25.9375 58.3477,22.8125 Q58.3477,19.6875 59.6602,18.0313 Q60.9883,16.375 63.4883,16.375 Q64.1914,16.375 64.832,16.5313 Q65.4883,16.6875 66.0508,16.9844 L66.0508,19.7031 Q65.4258,19.125 64.832,18.8594 Q64.2383,18.5781 63.6133,18.5781 Q62.2695,18.5781 61.582,19.6563 Q60.8945,20.7188 60.8945,22.8125 Q60.8945,24.9063 61.582,25.9844 Q62.2695,27.0469 63.6133,27.0469 Q64.2383,27.0469 64.832,26.7813 Q65.4258,26.5 66.0508,25.9219 L66.0508,28.6406 Z " fill="#FFFFFF"/><text fill="#FFFFFF" font-family="sans-serif" font-size="14" lengthAdjust="spacing" textLength="32.5322" x="83.582" y="27.8467">Task</text><line style="stroke:#E7E7E7;stroke-width:0.5;" x1="8" x2="159.1963" y1="39" y2="39"/><rect fill="none" height="6" style="stroke:#C82930;stroke-width:1;" width="6" x="15" y="49.6484"/><text fill="#FFFFFF" font-family="sans-serif" font-size="14" lengthAdjust="spacing" textLength="40.1953" x="27" y="55.9951">id: int</text><rect fill="none" height="6" style="stroke:#C82930;stroke-width:1;" width="6" x="15" y="65.9453"/><text fill="#FFFFFF" font-family="sans-serif" font-size="14" lengthAdjust="spacing" textLength="76.7266" x="27" y="72.292">title: string</text><rect fill="none" height="6" style="stroke:#C82930;stroke-width:1;" width="6" x="15" y="82.2422"/><text fill="#FFFFFF" font-family="sans-serif" font-size="14" lengthAdjust="spacing" textLength="127.1963" x="27" y="88.5889">description: string</text><rect fill="none" height="6" style="stroke:#C82930;stroke-width:1;" width="6" x="15" y="98.5391"/><text fill="#FFFFFF" font-family="sans-serif" font-size="14" lengthAdjust="spacing" textLength="92.374" x="27" y="104.8857">status: string</text><line style="stroke:#E7E7E7;stroke-width:0.5;" x1="8" x2="159.1963" y1="112.1875" y2="112.1875"/><ellipse cx="18" cy="125.8359" fill="#84BE84" rx="3" ry="3" style="stroke:#038048;stroke-width:1;"/><text fill="#FFFFFF" font-family="sans-serif" font-size="14" lengthAdjust="spacing" textLength="93.0713" x="27" y="129.1826">to_dict(): dict</text></g><!--SRC=[LSWn2e0m44JHFgUOKX4la7FOIyW6MGo9PCTAlBkOIgl_UJ47Cop1TbmEcA7YeONzgSp9mzYqR5qaMMnwK6lvkJ7mj0zDO5r58uVHuwsx7m00]--></g></svg>