<svg xmlns="http://www.w3.org/2000/svg" xmlns:xlink="http://www.w3.org/1999/xlink" contentStyleType="text/css" data-diagram-type="DESCRIPTION" height="199px" preserveAspectRatio="none" style="width:1069px;height:199px;background:#1B1B1B;" version="1.1" viewBox="0 0 1069 199" width="1069px" zoomAndPan="magnify"><defs/><g><rect fill="#1B1B1B" height="199" style="stroke:none;stroke-width:1;" width="1069" x="0" y="0"/><!--cluster Sistema de Tarefas--><g class="cluster" data-entity="Sistema de Tarefas" data-source-line="3" data-uid="ent0003" id="cluster_Sistema de Tarefas"><rect fill="none" height="86.86" rx="2.5" ry="2.5" style="stroke:#E7E7E7;stroke-width:1;" width="1056" x="7" y="106.8"/><text fill="#FFFFFF" font-family="sans-serif" font-size="14" font-weight="bold" lengthAdjust="spacing" textLength="151.9697" x="459.0151" y="121.7951">Sistema de Tarefas</text></g><!--entity CT--><g class="entity" data-entity="CT" data-source-line="4" data-uid="ent0004" id="entity_CT"><ellipse cx="84.0028" cy="159.7266" fill="#313139" rx="61.2328" ry="14.6466" style="stroke:#E7E7E7;stroke-width:0.5;"/><text fill="#FFFFFF" font-family="sans-serif" font-size="14" lengthAdjust="spacing" textLength="83.2139" x="42.3959" y="164.375">Criar Tarefa</text></g><!--entity VT--><g class="entity" data-entity="VT" data-source-line="5" data-uid="ent0005" id="entity_VT"><ellipse cx="257.9973" cy="159.7335" fill="#313139" rx="77.3673" ry="17.8735" style="stroke:#E7E7E7;stroke-width:0.5;"/><text fill="#FFFFFF" font-family="sans-serif" font-size="14" lengthAdjust="spacing" textLength="124.4277" x="195.7834" y="164.3819">Visualizar Tarefas</text></g><!--entity UT--><g class="entity" data-entity="UT" data-source-line="6" data-uid="ent0006" id="entity_UT"><ellipse cx="441.9962" cy="159.7252" fill="#313139" rx="72.0262" ry="16.8052" style="stroke:#E7E7E7;stroke-width:0.5;"/><text fill="#FFFFFF" font-family="sans-serif" font-size="14" lengthAdjust="spacing" textLength="111.4395" x="386.2765" y="164.3737">Atualizar Tarefa</text></g><!--entity DT--><g class="entity" data-entity="DT" data-source-line="7" data-uid="ent0007" id="entity_DT"><ellipse cx="616.9954" cy="159.7311" fill="#313139" rx="67.9554" ry="15.9911" style="stroke:#E7E7E7;stroke-width:0.5;"/><text fill="#FFFFFF" font-family="sans-serif" font-size="14" lengthAdjust="spacing" textLength="101.1787" x="566.4061" y="164.3795">Deletar Tarefa</text></g><!--entity VK--><g class="entity" data-entity="VK" data-source-line="8" data-uid="ent0008" id="entity_VK"><ellipse cx="797.9977" cy="159.7295" fill="#313139" rx="77.6477" ry="17.9295" style="stroke:#E7E7E7;stroke-width:0.5;"/><text fill="#FFFFFF" font-family="sans-serif" font-size="14" lengthAdjust="spacing" textLength="125.0977" x="735.4489" y="164.378">Visualizar Kanban</text></g><!--entity AE--><g class="entity" data-entity="AE" data-source-line="9" data-uid="ent0009" id="entity_AE"><ellipse cx="979.002" cy="159.7324" fill="#313139" rx="68.262" ry="16.0524" style="stroke:#E7E7E7;stroke-width:0.5;"/><text fill="#FFFFFF" font-family="sans-serif" font-size="14" lengthAdjust="spacing" textLength="101.9648" x="928.0196" y="164.3808">Alterar Escopo</text></g><!--entity Usuario--><g class="entity" data-entity="Usuario" data-source-line="1" data-uid="ent0002" id="entity_Usuario"><ellipse cx="529.0021" cy="14" fill="#313139" rx="8" ry="8" style="stroke:#E7E7E7;stroke-width:0.5;"/><path d="M529.0021,22 L529.0021,49 M516.0021,30 L542.0021,30 M529.0021,49 L516.0021,64 M529.0021,49 L542.0021,64" fill="none" style="stroke:#E7E7E7;stroke-width:0.5;"/><text fill="#FFFFFF" font-family="sans-serif" font-size="14" lengthAdjust="spacing" textLength="53.2041" x="502.4" y="78.4951">Usuario</text></g><!--link Usuario to CT--><g class="link" data-entity-1="Usuario" data-entity-2="CT" data-source-line="12" data-uid="lnk10" id="link_Usuario_CT"><path d="M502.06,44.15 C439.77,43.92 282.02,48.77 163,98.8 C137.13,109.67 116.5203,126.8573 101.8003,140.9073" fill="none" id="Usuario-to-CT" style="stroke:#E7E7E7;stroke-width:1;"/><polygon fill="#E7E7E7" points="97.46,145.05,106.7322,141.7294,101.0769,141.5977,101.2086,135.9424,97.46,145.05" style="stroke:#E7E7E7;stroke-width:1;"/></g><!--link Usuario to VT--><g class="link" data-entity-1="Usuario" data-entity-2="VT" data-source-line="13" data-uid="lnk11" id="link_Usuario_VT"><path d="M502.09,50.48 C466.66,58.69 402.92,75.31 352,98.8 C325.99,110.8 303.5222,125.4723 285.0722,138.6523" fill="none" id="Usuario-to-VT" style="stroke:#E7E7E7;stroke-width:1;"/><polygon fill="#E7E7E7" points="280.19,142.14,289.8385,140.1633,284.2585,139.2336,285.1882,133.6537,280.19,142.14" style="stroke:#E7E7E7;stroke-width:1;"/></g><!--link Usuario to UT--><g class="link" data-entity-1="Usuario" data-entity-2="UT" data-source-line="14" data-uid="lnk12" id="link_Usuario_UT"><path d="M501.95,80.12 C485.99,101.05 470.1995,121.7599 457.8695,137.9199" fill="none" id="Usuario-to-UT" style="stroke:#E7E7E7;stroke-width:1;"/><polygon fill="#E7E7E7" points="454.23,142.69,462.8694,137.9612,457.263,138.7149,456.5093,133.1085,454.23,142.69" style="stroke:#E7E7E7;stroke-width:1;"/></g><!--link Usuario to DT--><g class="link" data-entity-1="Usuario" data-entity-2="DT" data-source-line="15" data-uid="lnk13" id="link_Usuario_DT"><path d="M555.88,79.5 C572.46,100.99 589.2144,122.7099 601.7544,138.9599" fill="none" id="Usuario-to-DT" style="stroke:#E7E7E7;stroke-width:1;"/><polygon fill="#E7E7E7" points="605.42,143.71,603.0883,134.1411,602.3653,139.7516,596.7549,139.0286,605.42,143.71" style="stroke:#E7E7E7;stroke-width:1;"/></g><!--link Usuario to VK--><g class="link" data-entity-1="Usuario" data-entity-2="VK" data-source-line="16" data-uid="lnk14" id="link_Usuario_VK"><path d="M555.86,50.8 C590.56,59.24 652.38,76 702,98.8 C728.42,110.94 751.4545,125.6438 770.3445,138.7838" fill="none" id="Usuario-to-VK" style="stroke:#E7E7E7;stroke-width:1;"/><polygon fill="#E7E7E7" points="775.27,142.21,770.1658,133.787,771.1654,139.3548,765.5975,140.3543,775.27,142.21" style="stroke:#E7E7E7;stroke-width:1;"/></g><!--link Usuario to AE--><g class="link" data-entity-1="Usuario" data-entity-2="AE" data-source-line="17" data-uid="lnk15" id="link_Usuario_AE"><path d="M555.66,44.51 C617.32,45.05 773.65,51.39 893,98.8 C919.72,109.42 941.6615,125.8587 958.0315,139.8687" fill="none" id="Usuario-to-AE" style="stroke:#E7E7E7;stroke-width:1;"/><polygon fill="#E7E7E7" points="962.59,143.77,958.3531,134.879,958.7913,140.5189,953.1514,140.957,962.59,143.77" style="stroke:#E7E7E7;stroke-width:1;"/></g><!--SRC=[NS_13i8W30RWEq_HxAI7lO896PmuEdQlM0q9WYbuqVZkRhWOsV7lr_nfqPN4OFC3sISXc5p1U0q4tT7dGZU4Cy68J1VC7Rm4m6vWZxpEze0PXd4PJtuk2VxvirnngYXBQvLi9KM1IWjgMsWmdZ1- -qpj2uLu1frTkgSAKekt4EidqFU7vQx_EBNHjb5jbaqJfVu0]--></g></svg>